<?xml version="1.0" encoding="UTF-8"?>
<svg xmlns="http://www.w3.org/2000/svg" xmlns:xlink="http://www.w3.org/1999/xlink" width="40px" height="40px" viewBox="0 0 40 40" version="1.1">
<g id="surface1">
<path style=" stroke:none;fill-rule:nonzero;fill:rgb(83.921569%,13.333333%,23.137255%);fill-opacity:1;" d="M 28.820312 8.820312 C 29.472656 8.171875 30.527344 8.171875 31.179688 8.820312 C 31.828125 9.472656 31.828125 10.527344 31.179688 11.179688 L 22.355469 20 L 31.179688 28.820312 C 31.828125 29.472656 31.828125 30.527344 31.179688 31.179688 C 30.527344 31.828125 29.472656 31.828125 28.820312 31.179688 L 20 22.355469 L 11.179688 31.179688 C 10.527344 31.828125 9.472656 31.828125 8.820312 31.179688 C 8.171875 30.527344 8.171875 29.472656 8.820312 28.820312 L 17.644531 20 L 8.820312 11.179688 C 8.171875 10.527344 8.171875 9.472656 8.820312 8.820312 C 9.472656 8.171875 10.527344 8.171875 11.179688 8.820312 L 20 17.644531 Z M 28.820312 8.820312 "/>
</g>
</svg>
